<svg xmlns="http://www.w3.org/2000/svg" width="20" height="20" viewBox="0 0 20 20">
  <g id="カレンダーのフリーアイコン19" transform="translate(-17.867)">
    <path id="Path_730" data-name="Path 730" d="M102.14,3.663a.7.7,0,0,0,.7-.7V.7a.7.7,0,0,0-1.409,0V2.958A.7.7,0,0,0,102.14,3.663Z" transform="translate(-80.052)"/>
    <path id="Path_731" data-name="Path 731" d="M239.528,3.663a.7.7,0,0,0,.7-.7V.7a.7.7,0,0,0-1.409,0V2.958A.7.7,0,0,0,239.528,3.663Z" transform="translate(-211.661)"/>
    <path id="Path_732" data-name="Path 732" d="M35.048,44.9h-.114v1.059a1.3,1.3,0,0,1-2.6,0V44.9H29.165v1.059a1.3,1.3,0,0,1-2.6,0V44.9H23.4v1.059a1.3,1.3,0,0,1-2.6,0V44.9h-.113a2.721,2.721,0,0,0-2.819,2.61V60.448a2.721,2.721,0,0,0,2.819,2.61H35.048a2.721,2.721,0,0,0,2.819-2.61V47.509A2.721,2.721,0,0,0,35.048,44.9ZM36.713,60.25a1.813,1.813,0,0,1-1.879,1.74H20.9a1.814,1.814,0,0,1-1.88-1.74V50.558H36.713V60.25Z" transform="translate(0 -43.057)"/>
    <path id="Path_733" data-name="Path 733" d="M376.9,3.663a.7.7,0,0,0,.7-.7V.7A.7.7,0,0,0,376.2.7V2.958A.7.7,0,0,0,376.9,3.663Z" transform="translate(-343.254)"/>
  </g>
</svg>
